<svg fill="none" xmlns="http://www.w3.org/2000/svg">
    <symbol id="instagram" viewBox="-143 145 512 512">
        <path d="M113,446c24.8,0,45.1-20.2,45.1-45.1c0-9.8-3.2-18.9-8.5-26.3c-8.2-11.3-21.5-18.8-36.5-18.8s-28.3,7.4-36.5,18.8 c-5.3,7.4-8.5,16.5-8.5,26.3C68,425.8,88.2,446,113,446z"></path>
        <path d="M183,401c0,38.6-31.4,70-70,70c-38.6,0-70-31.4-70-70c0-9.3,1.9-18.2,5.2-26.3H10v104.8C10,493,21,504,34.5,504h157 c13.5,0,24.5-11,24.5-24.5V374.7h-38.2C181.2,382.8,183,391.7,183,401z"></path>
        <path d="M113,145c-141.4,0-256,114.6-256,256s114.6,256,256,256s256-114.6,256-256S254.4,145,113,145z M241,374.7v104.8 c0,27.3-22.2,49.5-49.5,49.5h-157C7.2,529-15,506.8-15,479.5V374.7v-52.3c0-27.3,22.2-49.5,49.5-49.5h157 c27.3,0,49.5,22.2,49.5,49.5V374.7z"></path>
    </symbol>

    <symbol id="ios" viewBox="0 0 512 512">
        <path d="M256,0C114.6,0,0,114.6,0,256s114.6,256,256,256s256-114.6,256-256S397.4,0,256,0z M265.1,142.1 c9.4-11.4,25.4-20.1,39.1-21.1c2.3,15.6-4.1,30.8-12.5,41.6c-9,11.6-24.5,20.5-39.5,20C249.6,167.7,256.6,152.4,265.1,142.1z M349.4,339.9c-10.8,16.4-26,36.9-44.9,37.1c-16.8,0.2-21.1-10.9-43.8-10.8c-22.7,0.1-27.5,11-44.3,10.8 c-18.9-0.2-33.3-18.7-44.1-35.1c-30.2-46-33.4-99.9-14.7-128.6c13.2-20.4,34.1-32.3,53.8-32.3c20,0,32.5,11,49.1,11 c16,0,25.8-11,48.9-11c17.5,0,36,9.5,49.2,26c-43.2,23.7-36.2,85.4,7.5,101.9C360,322.1,357.1,328.1,349.4,339.9z"></path>
    </symbol>

    <symbol viewBox="0 0 24 24" id="telegram">
        <path d="M24 12C24 18.6274 18.6274 24 12 24C5.37258 24 0 18.6274 0 12C0 5.37258 5.37258 0 12 0C18.6274 0 24 5.37258 24 12ZM12.43 8.85893C11.2629 9.3444 8.93015 10.3492 5.43191 11.8733C4.86385 12.0992 4.56628 12.3202 4.53919 12.5363C4.4934 12.9015 4.95073 13.0453 5.57349 13.2411C5.6582 13.2678 5.74598 13.2954 5.83596 13.3246C6.44866 13.5238 7.27284 13.7568 7.70131 13.766C8.08996 13.7744 8.52375 13.6142 9.00266 13.2853C12.2712 11.079 13.9584 9.96381 14.0643 9.93977C14.1391 9.92281 14.2426 9.90148 14.3128 9.96385C14.3829 10.0262 14.3761 10.1443 14.3686 10.176C14.3233 10.3691 12.5281 12.0381 11.5991 12.9018C11.3095 13.171 11.1041 13.362 11.0621 13.4056C10.968 13.5034 10.8721 13.5958 10.78 13.6846C10.2108 14.2333 9.78393 14.6448 10.8036 15.3168C11.2937 15.6397 11.6858 15.9067 12.077 16.1731C12.5042 16.4641 12.9303 16.7543 13.4816 17.1157C13.6221 17.2078 13.7562 17.3034 13.8869 17.3965C14.3841 17.751 14.8308 18.0694 15.3826 18.0186C15.7033 17.9891 16.0345 17.6876 16.2027 16.7884C16.6002 14.6632 17.3816 10.0585 17.5622 8.16098C17.5781 7.99473 17.5582 7.78197 17.5422 7.68858C17.5262 7.59518 17.4928 7.46211 17.3714 7.3636C17.2276 7.24694 17.0057 7.22234 16.9064 7.22408C16.455 7.23204 15.7626 7.47282 12.43 8.85893Z"></path>
    </symbol>

    <symbol id="phone" viewBox="0 0 24 24">
        <path d="M9.50246 4.25722C9.19873 3.4979 8.46332 3 7.64551 3H4.89474C3.8483 3 3 3.8481 3 4.89453C3 13.7892 10.2108 21 19.1055 21C20.1519 21 21 20.1516 21 19.1052L21.0005 16.354C21.0005 15.5361 20.5027 14.8009 19.7434 14.4971L17.1069 13.4429C16.4249 13.1701 15.6483 13.2929 15.0839 13.7632L14.4035 14.3307C13.6089 14.9929 12.4396 14.9402 11.7082 14.2088L9.79222 12.2911C9.06079 11.5596 9.00673 10.3913 9.66895 9.59668L10.2363 8.9163C10.7066 8.35195 10.8305 7.57516 10.5577 6.89309L9.50246 4.25722Z"></path>
    </symbol>

    <symbol id="mail" viewBox="0 0 16 16">
        <path d="m 1.800781 3.019531 c -0.257812 0.050781 -0.484375 0.207031 -0.632812 0.425781 c -0.304688 0.460938 -0.183594 1.082032 0.277343 1.386719 l 5.167969 3.445313 c 0.835938 0.558594 1.9375 0.558594 2.773438 0 l 5.167969 -3.445313 c 0.460937 -0.304687 0.582031 -0.925781 0.277343 -1.386719 c -0.304687 -0.460937 -0.925781 -0.582031 -1.386719 -0.277343 l -5.167968 3.445312 c -0.171875 0.113281 -0.382813 0.113281 -0.554688 0 l -5.167968 -3.445312 c -0.222657 -0.148438 -0.492188 -0.199219 -0.753907 -0.148438 z m 0 0"></path>
        <path d="m 3 2 c -1.644531 0 -3 1.355469 -3 3 v 6 c 0 1.644531 1.355469 3 3 3 h 10 c 1.644531 0 3 -1.355469 3 -3 v -6 c 0 -1.644531 -1.355469 -3 -3 -3 z m 0 2 h 10 c 0.570312 0 1 0.429688 1 1 v 6 c 0 0.570312 -0.429688 1 -1 1 h -10 c -0.570312 0 -1 -0.429688 -1 -1 v -6 c 0 -0.570312 0.429688 -1 1 -1 z m 0 0"></path>
    </symbol>

    <symbol id="burger" viewBox="0 0 24 24">
        <path d="M5 12H20"></path>
        <path d="M5 17H20"></path>
        <path d="M5 7H20"></path>
    </symbol>

    <symbol id="plus" viewBox="0 0 24 24">
        <path d="M5 12H19"></path>
        <path d="M12 5L12 19"></path>
    </symbol>

    <symbol id="minus" viewBox="0 0 24 24">
        <path d="M5 12H19"></path>
    </symbol>

    <symbol id="delete" viewBox="0 0 24 24">
        <path d="M10 12V17"></path>
        <path d="M14 12V17"></path>
        <path d="M4 7H20"></path>
        <path d="M6 10V18C6 19.6569 7.34315 21 9 21H15C16.6569 21 18 19.6569 18 18V10"></path>
        <path d="M9 5C9 3.89543 9.89543 3 11 3H13C14.1046 3 15 3.89543 15 5V7H9V5Z"></path>
    </symbol>

    <symbol id="cap" viewBox="0 0 474.565 474.565">
        <path
                d="M255.204,102.3c-0.606-11.321-12.176-9.395-23.465-9.395C240.078,95.126,247.967,98.216,255.204,102.3z"></path>
        <path d="M134.524,73.928c-43.825,0-63.997,55.471-28.963,83.37c11.943-31.89,35.718-54.788,66.886-63.826 C163.921,81.685,150.146,73.928,134.524,73.928z"></path>
        <path d="M43.987,148.617c1.786,5.731,4.1,11.229,6.849,16.438L36.44,179.459c-3.866,3.866-3.866,10.141,0,14.015l25.375,25.383 c1.848,1.848,4.38,2.888,7.019,2.888c2.61,0,5.125-1.04,7.005-2.888l14.38-14.404c2.158,1.142,4.55,1.842,6.785,2.827 c0-0.164-0.016-0.334-0.016-0.498c0-11.771,1.352-22.875,3.759-33.302c-17.362-11.174-28.947-30.57-28.947-52.715 c0-34.592,28.139-62.739,62.723-62.739c23.418,0,43.637,13.037,54.43,32.084c11.523-1.429,22.347-1.429,35.376,1.033 c-1.676-5.07-3.648-10.032-6.118-14.683l14.396-14.411c1.878-1.856,2.918-4.38,2.918-7.004c0-2.625-1.04-5.148-2.918-7.004 l-25.361-25.367c-1.94-1.941-4.472-2.904-7.003-2.904c-2.532,0-5.063,0.963-6.989,2.904l-14.442,14.411 c-5.217-2.764-10.699-5.078-16.444-6.825V9.9c0-5.466-4.411-9.9-9.893-9.9h-35.888c-5.451,0-9.909,4.434-9.909,9.9v20.359 c-5.73,1.747-11.213,4.061-16.446,6.825L75.839,22.689c-1.942-1.941-4.473-2.904-7.005-2.904c-2.531,0-5.077,0.963-7.003,2.896 L36.44,48.048c-1.848,1.864-2.888,4.379-2.888,7.012c0,2.632,1.04,5.148,2.888,7.004l14.396,14.403 c-2.75,5.218-5.063,10.708-6.817,16.438H23.675c-5.482,0-9.909,4.441-9.909,9.915v35.889c0,5.458,4.427,9.908,9.909,9.908H43.987z"></path>
        <path d="M354.871,340.654c15.872-8.705,26.773-25.367,26.773-44.703c0-28.217-22.967-51.168-51.184-51.168 c-9.923,0-19.118,2.966-26.975,7.873c-4.705,18.728-12.113,36.642-21.803,52.202C309.152,310.022,334.357,322.531,354.871,340.654z "></path>
        <path d="M460.782,276.588c0-5.909-4.799-10.693-10.685-10.693H428.14c-1.896-6.189-4.411-12.121-7.393-17.75l15.544-15.544 c2.02-2.004,3.137-4.721,3.137-7.555c0-2.835-1.118-5.553-3.137-7.563l-27.363-27.371c-2.08-2.09-4.829-3.138-7.561-3.138 c-2.734,0-5.467,1.048-7.547,3.138l-15.576,15.552c-5.623-2.982-11.539-5.481-17.751-7.369v-21.958 c0-5.901-4.768-10.685-10.669-10.685H311.11c-2.594,0-4.877,1.04-6.739,2.578c3.26,11.895,5.046,24.793,5.046,38.552 c0,8.735-0.682,17.604-1.956,26.423c7.205-2.656,14.876-4.324,22.999-4.324c36.99,0,67.086,30.089,67.086,67.07 c0,23.637-12.345,44.353-30.872,56.303c13.48,14.784,24.195,32.324,31.168,51.976c1.148,0.396,2.344,0.684,3.54,0.684 c2.733,0,5.467-1.04,7.563-3.13l27.379-27.371c2.004-2.004,3.106-4.721,3.106-7.555s-1.102-5.551-3.106-7.563l-15.576-15.552 c2.982-5.621,5.497-11.555,7.393-17.75h21.957c2.826,0,5.575-1.118,7.563-3.138c2.004-1.996,3.138-4.72,3.138-7.555 L460.782,276.588z"></path>
        <path d="M376.038,413.906c-16.602-48.848-60.471-82.445-111.113-87.018c-16.958,17.958-37.954,29.351-61.731,29.351 c-23.759,0-44.771-11.392-61.713-29.351c-50.672,4.573-94.543,38.17-111.145,87.026l-9.177,27.013 c-2.625,7.773-1.368,16.338,3.416,23.007c4.783,6.671,12.486,10.631,20.685,10.631h315.853c8.215,0,15.918-3.96,20.702-10.631 c4.767-6.669,6.041-15.234,3.4-23.007L376.038,413.906z"></path>
        <path d="M120.842,206.782c0,60.589,36.883,125.603,82.352,125.603c45.487,0,82.368-65.014,82.368-125.603 C285.563,81.188,120.842,80.939,120.842,206.782z"></path>
    </symbol>

</svg>